<svg width="37" height="17" viewBox="0 0 37 17" fill="none" xmlns="http://www.w3.org/2000/svg">
<path d="M5.85 0.999999H8.25C9.6 0.999999 10.6917 1.18333 11.525 1.55C12.3583 1.91667 12.9833 2.41667 13.4 3.05C13.8167 3.66667 14.0417 4.36667 14.075 5.15C14.1083 6.13333 13.9083 6.99167 13.475 7.725C13.0583 8.45833 12.4917 9.01667 11.775 9.4C11.0583 9.78333 10.275 9.95833 9.425 9.925C8.575 9.875 7.73333 9.575 6.9 9.025V8.8C6.9 8.8 6.98333 8.8 7.15 8.8C7.33333 8.8 7.55833 8.775 7.825 8.725C8.09167 8.65833 8.36667 8.54167 8.65 8.375C8.95 8.20833 9.23333 7.95833 9.5 7.625C9.76667 7.29167 9.975 6.84167 10.125 6.275C10.175 6.075 10.2083 5.85833 10.225 5.625C10.2583 5.375 10.2667 5.15833 10.25 4.975C10.2333 4.05833 9.95833 3.33333 9.425 2.8C8.90833 2.25 8.18333 1.975 7.25 1.975H6.075C6.075 1.975 6.05833 1.9 6.025 1.75C5.99167 1.58333 5.95 1.41667 5.9 1.25C5.86667 1.08333 5.85 0.999999 5.85 0.999999ZM6.125 0.999999V16H2.525V0.999999H6.125ZM2.575 14.425L2.675 16H0.875V15.75C0.891667 15.75 0.941667 15.75 1.025 15.75C1.10833 15.75 1.15833 15.75 1.175 15.75C1.54167 15.75 1.85 15.625 2.1 15.375C2.36667 15.1083 2.50833 14.7917 2.525 14.425H2.575ZM2.575 2.55H2.525C2.50833 2.16667 2.36667 1.85833 2.1 1.625C1.85 1.375 1.54167 1.25 1.175 1.25C1.14167 1.25 1.08333 1.25 1 1.25C0.933333 1.25 0.883333 1.25 0.85 1.25V0.999999H2.675L2.575 2.55ZM6.075 14.425H6.125C6.14167 14.7917 6.275 15.1083 6.525 15.375C6.775 15.625 7.09167 15.75 7.475 15.75C7.50833 15.75 7.55833 15.75 7.625 15.75C7.70833 15.75 7.75833 15.75 7.775 15.75V16H5.95L6.075 14.425ZM15.6484 1.15H19.5234L22.8984 10.05L21.4984 16.275L15.6484 1.15ZM26.8234 0.649999L27.2734 2.95L22.2984 13.75C22.2984 13.75 22.2484 13.875 22.1484 14.125C22.0651 14.375 21.9734 14.6917 21.8734 15.075C21.7734 15.4583 21.7234 15.8583 21.7234 16.275H21.4984L20.8234 13.5L26.6234 0.649999H26.8234ZM26.8234 0.649999L31.7234 10.5L30.5484 16.275L25.1734 5.45L26.8234 0.649999ZM35.2734 1.15L31.1734 13.75C31.1734 13.75 31.1318 13.8833 31.0484 14.15C30.9818 14.4167 30.9151 14.75 30.8484 15.15C30.7818 15.5333 30.7568 15.9083 30.7734 16.275H30.5484L29.8734 14.025L33.6734 1.15H35.2734ZM33.2234 2.625C33.3568 2.14167 33.3234 1.79167 33.1234 1.575C32.9401 1.35833 32.7068 1.25 32.4234 1.25H32.2234V0.999999H36.9234V1.25C36.9234 1.25 36.8901 1.25 36.8234 1.25C36.7734 1.25 36.7484 1.25 36.7484 1.25C36.3651 1.25 35.9818 1.36667 35.5984 1.6C35.2151 1.81667 34.9484 2.15833 34.7984 2.625H33.2234ZM20.0984 2.625H16.2234C16.0401 2.15833 15.7734 1.81667 15.4234 1.6C15.0734 1.36667 14.6901 1.25 14.2734 1.25C14.2734 1.25 14.2401 1.25 14.1734 1.25C14.1068 1.25 14.0734 1.25 14.0734 1.25V0.999999H21.0984V1.25H20.8984C20.6318 1.25 20.3901 1.35833 20.1734 1.575C19.9568 1.79167 19.9318 2.14167 20.0984 2.625Z" fill="#FF0000"/>
</svg>
